<svg width="216" height="90" viewBox="0 0 216 90" fill="none" xmlns="http://www.w3.org/2000/svg">
<path d="M62.0949 64C60.2387 64 58.8265 63.558 57.858 62.6741C56.9098 61.7901 56.3247 60.4843 56.1027 58.7565C56.0422 58.194 55.9817 57.511 55.9212 56.7074C55.8808 55.9038 55.8405 55.0399 55.8001 54.1158C55.7799 53.1716 55.7598 52.1872 55.7396 51.1626C55.7194 50.1179 55.6992 49.0732 55.6791 48.0285C55.6791 46.9638 55.6791 45.9191 55.6791 44.8945C55.6791 43.8699 55.6791 42.8956 55.6791 41.9715C55.6791 40.4848 55.5277 39.4401 55.2251 38.8374C54.9427 38.2146 54.2668 37.9033 53.1975 37.9033C52.108 37.9033 51.0286 37.9836 49.9593 38.1443C48.89 38.305 47.7904 38.3854 46.6606 38.3854C45.7527 38.3854 44.9456 38.1845 44.2395 37.7827C43.5333 37.3809 42.9785 36.8084 42.575 36.065C42.1917 35.3016 42 34.4076 42 33.383C42 32.1977 42.464 31.1832 43.3921 30.3394C44.3202 29.4755 45.5812 28.7624 47.175 28.1998C48.7689 27.6373 50.5645 27.1953 52.5619 26.8739C54.5593 26.5525 56.6374 26.3315 58.7962 26.2109C60.955 26.0703 63.0432 26 65.0607 26C66.8967 26 68.7226 26.0301 70.5384 26.0904C72.3542 26.1507 74.0691 26.3013 75.6832 26.5424C77.3174 26.7835 78.76 27.1652 80.0108 27.6875C81.2819 28.1898 82.2806 28.8729 83.0069 29.7367C83.7332 30.6006 84.0964 31.7055 84.0964 33.0515C84.0964 34.2569 83.8946 35.2815 83.4911 36.1253C83.1078 36.949 82.5227 37.5818 81.7359 38.0238C80.9692 38.4658 80.0209 38.6868 78.8911 38.6868C77.7411 38.6868 76.8937 38.6767 76.349 38.6566C75.8244 38.6164 75.1687 38.5964 74.3818 38.5964C73.2924 38.5964 72.4853 38.737 71.9608 39.0182C71.4362 39.2794 71.0831 39.7515 70.9016 40.4346C70.7401 41.1176 70.6191 42.0819 70.5384 43.3275C70.498 44.0708 70.4476 44.8443 70.3871 45.6479C70.3265 46.4314 70.2559 47.245 70.1752 48.0888C70.0945 48.9125 69.9937 49.7462 69.8726 50.59C69.7515 51.4338 69.6305 52.2575 69.5094 53.0611C69.3884 53.8647 69.2572 54.6381 69.116 55.3814C68.9748 56.1248 68.8134 56.8279 68.6318 57.4909C68.4704 58.1338 68.309 58.7164 68.1476 59.2387C67.6432 60.3838 67.1489 61.308 66.6647 62.0111C66.1805 62.7142 65.5853 63.2165 64.8791 63.5178C64.173 63.8393 63.2449 64 62.0949 64Z" fill="white"/>
<path d="M107.591 63.5781C102.789 63.5781 98.7841 62.3727 95.5762 59.9619C92.3884 57.5311 90.0783 54.2966 88.6458 50.2585C88.4239 49.5554 88.2121 48.8422 88.0103 48.119C87.8287 47.3957 87.6673 46.6624 87.5261 45.9191C87.405 45.1557 87.2941 44.3722 87.1932 43.5686C87.1125 42.765 87.052 41.9514 87.0116 41.1277C86.9713 40.304 86.9511 39.4703 86.9511 38.6265C86.9511 36.0148 87.2235 33.8551 87.7682 32.1475C88.3129 30.4399 89.2007 29.1642 90.4314 28.3204C91.6621 27.4565 93.2963 27.0246 95.3341 27.0246C96.706 27.0246 97.8358 27.3259 98.7236 27.9286C99.6315 28.5112 100.307 29.4755 100.751 30.8216C101.195 32.1475 101.417 33.9455 101.417 36.2157C101.417 36.8787 101.427 37.5517 101.447 38.2347C101.467 38.8977 101.498 39.5506 101.538 40.1935C101.578 40.8163 101.629 41.429 101.689 42.0317C101.77 42.6344 101.861 43.217 101.962 43.7795C102.083 44.322 102.224 44.8343 102.385 45.3164C102.809 46.7026 103.424 47.8176 104.231 48.6614C105.059 49.5052 106.178 49.927 107.591 49.927C108.519 49.927 109.336 49.7362 110.042 49.3545C110.748 48.9527 111.353 48.4203 111.858 47.7573C112.382 47.0743 112.806 46.2807 113.129 45.3767C113.371 44.7539 113.573 44.0909 113.734 43.3878C113.916 42.6646 114.047 41.9212 114.128 41.1578C114.229 40.3743 114.299 39.5808 114.339 38.7772C114.4 37.9736 114.43 37.18 114.43 36.3965C114.43 34.1665 114.693 32.3785 115.217 31.0325C115.762 29.6865 116.559 28.7121 117.608 28.1094C118.657 27.4866 119.948 27.1753 121.482 27.1753C123.237 27.1753 124.579 27.5771 125.507 28.3807C126.455 29.1642 127.101 30.3796 127.444 32.027C127.807 33.6743 127.988 35.7637 127.988 38.295C127.988 39.199 127.958 40.083 127.897 40.9469C127.857 41.7906 127.787 42.6244 127.686 43.4481C127.585 44.2717 127.454 45.0854 127.292 45.889C127.151 46.6725 126.979 47.4459 126.778 48.2094C126.576 48.9527 126.344 49.6759 126.082 50.3791C125.113 53.0912 123.761 55.4317 122.026 57.4005C120.311 59.3693 118.243 60.8961 115.822 61.981C113.401 63.0457 110.657 63.5781 107.591 63.5781Z" fill="white"/>
<path d="M151.998 64C150.142 64 148.73 63.558 147.762 62.6741C146.813 61.7901 146.228 60.4843 146.006 58.7565C145.946 58.194 145.885 57.511 145.825 56.7074C145.784 55.9038 145.744 55.0399 145.704 54.1158C145.684 53.1716 145.663 52.1872 145.643 51.1626C145.623 50.1179 145.603 49.0732 145.583 48.0285C145.583 46.9638 145.583 45.9191 145.583 44.8945C145.583 43.8699 145.583 42.8956 145.583 41.9715C145.583 40.4848 145.431 39.4401 145.129 38.8374C144.846 38.2146 144.17 37.9033 143.101 37.9033C142.012 37.9033 140.932 37.9836 139.863 38.1443C138.794 38.305 137.694 38.3854 136.564 38.3854C135.656 38.3854 134.849 38.1845 134.143 37.7827C133.437 37.3809 132.882 36.8084 132.479 36.065C132.095 35.3016 131.904 34.4076 131.904 33.383C131.904 32.1977 132.368 31.1832 133.296 30.3394C134.224 29.4755 135.485 28.7624 137.079 28.1998C138.673 27.6373 140.468 27.1953 142.466 26.8739C144.463 26.5525 146.541 26.3315 148.7 26.2109C150.859 26.0703 152.947 26 154.964 26C156.8 26 158.626 26.0301 160.442 26.0904C162.258 26.1507 163.973 26.3013 165.587 26.5424C167.221 26.7835 168.664 27.1652 169.914 27.6875C171.185 28.1898 172.184 28.8729 172.911 29.7367C173.637 30.6006 174 31.7055 174 33.0515C174 34.2569 173.798 35.2815 173.395 36.1253C173.011 36.949 172.426 37.5818 171.639 38.0238C170.873 38.4658 169.925 38.6868 168.795 38.6868C167.645 38.6868 166.797 38.6767 166.253 38.6566C165.728 38.6164 165.072 38.5964 164.285 38.5964C163.196 38.5964 162.389 38.737 161.864 39.0182C161.34 39.2794 160.987 39.7515 160.805 40.4346C160.644 41.1176 160.523 42.0819 160.442 43.3275C160.402 44.0708 160.351 44.8443 160.291 45.6479C160.23 46.4314 160.16 47.245 160.079 48.0888C159.998 48.9125 159.897 49.7462 159.776 50.59C159.655 51.4338 159.534 52.2575 159.413 53.0611C159.292 53.8647 159.161 54.6381 159.02 55.3814C158.878 56.1248 158.717 56.8279 158.535 57.4909C158.374 58.1338 158.213 58.7164 158.051 59.2387C157.547 60.3838 157.052 61.308 156.568 62.0111C156.084 62.7142 155.489 63.2165 154.783 63.5178C154.077 63.8393 153.149 64 151.998 64Z" fill="white"/>
</svg>
