<svg width="20" height="20" viewBox="0 0 20 20" fill="none" xmlns="http://www.w3.org/2000/svg">
<rect width="20" height="20" fill="white"/>
<path fill-rule="evenodd" clip-rule="evenodd" d="M5.93333 10.2333C5.93333 8.41078 7.41078 6.93333 9.23332 6.93333C11.0559 6.93333 12.5333 8.41078 12.5333 10.2333C12.5333 12.0559 11.0559 13.5333 9.23332 13.5333C7.41078 13.5333 5.93333 12.0559 5.93333 10.2333ZM9.23332 4C5.79075 4 3 6.79075 3 10.2333C3 13.6759 5.79075 16.4666 9.23332 16.4666C10.2422 16.4666 11.1951 16.227 12.0382 15.8014C12.0926 15.8847 12.1564 15.9636 12.2296 16.0368L14.4295 18.2368C15.0023 18.8095 15.931 18.8095 16.5037 18.2368C17.0765 17.664 17.0765 16.7354 16.5037 16.1626L14.3037 13.9626C14.2893 13.9482 14.2746 13.9341 14.2597 13.9204C15.0185 12.8878 15.4666 11.6129 15.4666 10.2333C15.4666 6.79075 12.6759 4 9.23332 4Z" fill="#408FFF"/>
</svg>
