<svg width="20" height="20" viewBox="0 0 20 20" fill="none" xmlns="http://www.w3.org/2000/svg">
<rect width="20" height="20" fill="white"/>
<path fill-rule="evenodd" clip-rule="evenodd" d="M5.33333 9.08333C5.33333 7.01227 7.01227 5.33333 9.08333 5.33333C11.1544 5.33333 12.8333 7.01227 12.8333 9.08333C12.8333 11.1544 11.1544 12.8333 9.08333 12.8333C7.01227 12.8333 5.33333 11.1544 5.33333 9.08333ZM9.08333 2C5.17132 2 2 5.17132 2 9.08333C2 12.9954 5.17132 16.1667 9.08333 16.1667C10.2298 16.1667 11.3126 15.8943 12.2707 15.4108C12.3326 15.5054 12.405 15.5951 12.4882 15.6782L14.9882 18.1782C15.639 18.8291 16.6943 18.8291 17.3452 18.1782C17.9961 17.5273 17.9961 16.472 17.3452 15.8212L14.8452 13.3212C14.8288 13.3048 14.8121 13.2888 14.7952 13.2732C15.6574 12.0998 16.1667 10.651 16.1667 9.08333C16.1667 5.17132 12.9954 2 9.08333 2Z" fill="#408FFF"/>
</svg>
